HIERARCHY
ROOT Hips
{
	OFFSET 0.000000 0.000000 0.000000
	CHANNELS 6 Xposition Yposition Zposition Xrotation Yrotation Zrotation
	JOINT LeftUpLeg_virtual
	{
		OFFSET 0.000000 0.000000 0.000000
		CHANNELS 3 Xrotation Yrotation Zrotation
		JOINT LeftUpLeg
		{
			OFFSET 11.394100 -6.187798 -0.413800
			CHANNELS 3 Xrotation Yrotation Zrotation
			JOINT LeftLeg
			{
				OFFSET 0.430247 -32.302673 3.732800
				CHANNELS 3 Xrotation Yrotation Zrotation
				JOINT LeftFoot
				{
					OFFSET -0.430247 -48.264931 -6.423300
					CHANNELS 3 Xrotation Yrotation Zrotation
					JOINT LeftToeBase
					{
						OFFSET 4.230900 -16.068199 23.438400
						CHANNELS 3 Xrotation Yrotation Zrotation
						JOINT LeftToe_End
						{
							OFFSET 4.510700 0.695400 19.974600
							CHANNELS 3 Xrotation Yrotation Zrotation
							End Site
							{
								OFFSET 0 0 0
							}
						}
					}
				}
			}
		}
	}
	JOINT RightUpLeg_virtual
	{
		OFFSET 0.000000 0.000000 0.000000
		CHANNELS 3 Xrotation Yrotation Zrotation
		JOINT RightUpLeg
		{
			OFFSET -11.333700 -6.187798 -0.413800
			CHANNELS 3 Xrotation Yrotation Zrotation
			JOINT RightLeg
			{
				OFFSET -0.430392 -32.302628 3.733000
				CHANNELS 3 Xrotation Yrotation Zrotation
				JOINT RightFoot
				{
					OFFSET 0.430392 -48.264973 -6.423500
					CHANNELS 3 Xrotation Yrotation Zrotation
					JOINT RightToeBase
					{
						OFFSET -4.230900 -16.068199 23.438400
						CHANNELS 3 Xrotation Yrotation Zrotation
						JOINT RightToe_End
						{
							OFFSET -4.510700 0.695400 19.974600
							CHANNELS 3 Xrotation Yrotation Zrotation
							End Site
							{
								OFFSET 0 0 0
							}
						}
					}
				}
			}
		}
	}
	JOINT Spine_virtual
	{
		OFFSET 0.000000 0.000000 0.000000
		CHANNELS 3 Xrotation Yrotation Zrotation
		JOINT Spine
		{
			OFFSET -0.002400 12.777504 0.315300
			CHANNELS 3 Xrotation Yrotation Zrotation
			JOINT Spine1
			{
				OFFSET -0.002067 5.816869 0.032633
				CHANNELS 3 Xrotation Yrotation Zrotation
				JOINT Spine1_split
				{
					OFFSET -0.002067 5.816869 0.032633
					CHANNELS 3 Xrotation Yrotation Zrotation
					JOINT Spine2
					{
						OFFSET -0.002067 5.816869 0.032633
						CHANNELS 3 Xrotation Yrotation Zrotation
						JOINT Neck_virtual
						{
							OFFSET 0.000000 0.000000 0.000000
							CHANNELS 3 Xrotation Yrotation Zrotation
							JOINT Neck
							{
								OFFSET -0.003700 21.199493 -0.826900
								CHANNELS 3 Xrotation Yrotation Zrotation
								JOINT Head
								{
									OFFSET 0.000000 20.442200 4.834800
									CHANNELS 3 Xrotation Yrotation Zrotation
									JOINT HeadTop_End
									{
										OFFSET 0.000000 34.668396 4.968400
										CHANNELS 3 Xrotation Yrotation Zrotation
										End Site
										{
											OFFSET 0 0 0
										}
									}
								}
							}
						}
						JOINT LeftShoulder_virtual
						{
							OFFSET 0.000000 0.000000 0.000000
							CHANNELS 3 Xrotation Yrotation Zrotation
							JOINT LeftShoulder
							{
								OFFSET 3.288150 8.794197 -1.372250
								CHANNELS 3 Xrotation Yrotation Zrotation
								JOINT LeftShoulder_split
								{
									OFFSET 3.288150 8.794197 -1.372250
									CHANNELS 3 Xrotation Yrotation Zrotation
									JOINT LeftArm
									{
										OFFSET 11.953299 -2.279007 -0.146200
										CHANNELS 3 Xrotation Yrotation Zrotation
										JOINT LeftForeArm
										{
											OFFSET 18.448900 0.000000 0.000000
											CHANNELS 3 Xrotation Yrotation Zrotation
											JOINT LeftHand
											{
												OFFSET 29.527798 0.000000 0.000000
												CHANNELS 3 Xrotation Yrotation Zrotation
												End Site
												{
													OFFSET 0 0 0
												}
											}
										}
									}
								}
							}
						}
						JOINT RightShoulder_virtual
						{
							OFFSET 0.000000 0.000000 0.000000
							CHANNELS 3 Xrotation Yrotation Zrotation
							JOINT RightShoulder
							{
								OFFSET -3.249400 8.794197 -1.372250
								CHANNELS 3 Xrotation Yrotation Zrotation
								JOINT RightShoulder_split
								{
									OFFSET -3.249400 8.794197 -1.372250
									CHANNELS 3 Xrotation Yrotation Zrotation
									JOINT RightArm
									{
										OFFSET -11.953299 -2.279007 -0.146200
										CHANNELS 3 Xrotation Yrotation Zrotation
										JOINT RightForeArm
										{
											OFFSET -18.448900 0.000000 0.000000
											CHANNELS 3 Xrotation Yrotation Zrotation
											JOINT RightHand
											{
												OFFSET -29.527802 0.000000 0.000000
												CHANNELS 3 Xrotation Yrotation Zrotation
												End Site
												{
													OFFSET 0 0 0
												}
											}
										}
									}
								}
							}
						}
					}
				}
			}
		}
	}
}
MOTION
Frames: 9
Frame Time: 0.03333333
13.875859 57.950527 -43.473843 0.000000 0.000000 0.000000 43.443838 -26.899600 11.158383 -72.515586 -0.594108 -7.105442 105.377969 3.721622 4.569984 15.647176 -4.111665 -7.423333 11.596889 -7.678358 -32.248759 0.000000 0.000000 0.000000 45.758777 -28.490428 12.465176 -119.378415 -4.808202 -25.865778 100.173207 -14.798278 8.080174 -16.729440 -2.095181 3.633294 -6.266587 0.002984 -1.109178 0.000000 0.000000 0.000000 44.781753 -28.906423 12.663864 34.366087 8.881812 4.853679 5.730896 3.260644 0.751839 0.781379 -0.568977 1.647519 0.000000 0.000000 0.000000 7.040176 2.781266 1.072370 -9.366565 -4.253583 0.293352 -22.061771 -19.031917 -7.531386 0.000000 0.000000 0.000000 6.676679 2.601780 0.758202 5.230171 -21.144570 -8.595355 1.196134 0.540151 -3.287589 -26.151010 -19.839765 -37.895245 1.870604 -36.551457 0.537850 0.000000 0.000000 0.000000 5.924824 2.423931 1.529913 -1.691366 28.823644 15.620115 -1.791746 0.803302 -2.024156 -51.751295 47.193820 18.026174 -1.118757 15.447438 -0.150219 0.000000 0.000000 0.000000 
14.200747 58.372475 -43.100513 0.000000 0.000000 0.000000 42.467859 -28.589246 11.524183 -72.570801 -0.782957 -7.725587 104.596137 4.199588 3.491085 10.151471 -1.612878 -6.528375 5.813650 -4.886643 -22.809335 0.000000 0.000000 0.000000 44.775421 -29.971054 12.974354 -117.442671 -4.679266 -25.491161 99.674904 -14.756870 8.457012 -16.797582 -2.820008 3.728094 -6.534868 0.344905 -1.172095 0.000000 0.000000 0.000000 43.725857 -31.104422 13.235828 34.034484 8.924161 3.991841 5.935931 3.251981 0.678614 0.866361 -0.470238 1.624446 0.000000 0.000000 0.000000 7.101239 2.757941 0.960572 -8.482905 -3.576133 -0.138401 -21.972263 -17.660475 -8.129417 0.000000 0.000000 0.000000 6.942202 2.623236 0.526515 5.704416 -21.535902 -8.585176 0.516221 0.265445 -3.221881 -24.368459 -16.865588 -37.748816 1.863608 -38.271831 0.656598 0.000000 0.000000 0.000000 6.179477 2.482729 1.389015 -1.181472 28.451846 14.900076 -1.995059 0.643868 -1.871279 -49.259666 45.517156 17.774375 -0.899431 18.743656 -0.148890 0.000000 0.000000 0.000000 
14.315959 58.900658 -42.840786 0.000000 0.000000 0.000000 41.111851 -29.576242 11.511921 -75.698092 -0.764104 -7.205849 105.255804 3.737309 2.357441 7.956055 -1.004014 -7.461529 -0.586436 -3.166635 -13.542583 0.000000 0.000000 0.000000 43.806856 -31.087408 13.396290 -115.122961 -4.339941 -24.596315 99.693161 -14.420005 8.726775 -17.634186 -3.727474 3.460582 -6.729860 0.733953 -1.318400 0.000000 0.000000 0.000000 42.705860 -32.124063 13.266457 33.608161 8.961302 3.062246 6.113640 3.222807 0.551770 1.046232 -0.782904 1.601336 0.000000 0.000000 0.000000 7.096219 2.756929 0.811326 -7.582932 -2.890729 -0.641394 -21.518738 -16.022398 -8.409341 0.000000 0.000000 0.000000 7.164169 2.632099 0.278870 6.172427 -22.115137 -8.367716 0.013383 -0.135297 -3.046191 -22.899912 -14.152622 -37.457389 1.596451 -39.675722 0.601522 0.000000 0.000000 0.000000 6.392380 2.556452 1.229763 -0.543744 28.001689 13.928099 -2.119210 0.354901 -1.705612 -47.167903 44.179873 17.650862 -0.699489 22.360265 -0.064784 0.000000 0.000000 0.000000 
14.192814 59.664722 -42.294018 0.000000 0.000000 0.000000 39.534228 -29.803346 11.157370 -81.302856 -1.237849 -5.749979 107.124537 2.274455 2.042767 11.081608 -2.634965 -10.333894 -13.901763 -2.640250 -3.854797 0.000000 0.000000 0.000000 42.740739 -31.766049 13.630588 -112.528719 -3.831569 -23.298653 100.119003 -13.639890 8.794224 -19.100991 -4.720570 2.971695 -6.637490 1.120202 -1.489375 0.000000 0.000000 0.000000 41.911782 -32.047207 12.917306 33.219107 8.962344 2.198226 6.257821 3.165326 0.396946 1.459181 -1.187813 1.672743 0.000000 0.000000 0.000000 7.055814 2.755401 0.658729 -6.776327 -2.297633 -1.191068 -20.895475 -14.358886 -8.442732 0.000000 0.000000 0.000000 7.311768 2.622323 0.049634 6.606482 -22.872062 -7.902719 -0.295079 -0.529990 -2.928265 -21.918514 -11.908953 -36.821895 1.129452 -40.815332 0.440765 0.000000 0.000000 0.000000 6.539868 2.630298 1.068020 0.142588 27.406663 12.772173 -1.984840 0.075622 -1.539220 -45.761868 43.455890 17.678533 -0.609730 25.642485 0.120788 0.000000 0.000000 0.000000 
13.902895 60.603470 -41.321545 0.000000 0.000000 0.000000 38.173548 -29.628059 10.792004 -87.393623 -2.494252 -4.578541 109.262796 1.101755 2.115151 15.957781 -4.751145 -12.552844 -33.862650 -4.415089 3.716427 0.000000 0.000000 0.000000 41.422082 -32.023226 13.597974 -109.785442 -3.286647 -21.900974 100.678826 -12.355607 8.520695 -20.988319 -5.684948 2.477428 -6.008582 1.457849 -1.567118 0.000000 0.000000 0.000000 41.216852 -31.489921 12.402242 33.081693 8.880182 1.477042 6.304130 3.074695 0.250277 1.487200 -1.407055 1.665586 0.000000 0.000000 0.000000 7.044783 2.721339 0.528309 -6.264976 -1.894844 -1.741509 -20.352135 -12.779049 -8.332062 0.000000 0.000000 0.000000 7.370233 2.585185 -0.131271 6.985210 -23.794238 -7.177786 -0.358373 -0.708748 -2.828531 -21.503360 -10.196830 -35.751290 0.657906 -41.837501 0.306169 0.000000 0.000000 0.000000 6.586029 2.645665 0.943823 0.784650 26.543440 11.376434 -1.412571 -0.070466 -1.394004 -45.284130 43.489570 18.074916 -0.662578 28.294597 0.374115 0.000000 0.000000 0.000000 
13.544103 61.898483 -39.790874 0.000000 0.000000 0.000000 37.100481 -29.277053 10.554112 -92.080198 -3.626497 -2.687181 110.391355 1.560119 1.129465 17.605383 -4.488288 -11.906060 -52.013878 -6.217869 6.069747 0.000000 0.000000 0.000000 39.873203 -31.813044 13.375827 -106.724253 -2.842362 -20.756330 100.773786 -10.734271 7.851394 -22.962355 -6.676174 2.197406 -5.082188 1.704126 -1.416512 0.000000 0.000000 0.000000 40.745582 -30.812018 12.012910 33.265835 8.633304 0.910409 6.258022 2.952473 0.143518 1.399110 -1.341193 1.547035 0.000000 0.000000 0.000000 7.103742 2.614109 0.438445 -6.186944 -1.649200 -2.196639 -20.083686 -11.350872 -8.217957 0.000000 0.000000 0.000000 7.348922 2.504193 -0.240874 7.272050 -24.801865 -6.283901 -0.244930 -0.516337 -2.839108 -21.635215 -9.125740 -34.307374 0.384525 -42.885825 0.332555 0.000000 0.000000 0.000000 6.559860 2.563998 0.854177 1.323501 25.328303 9.756690 -0.588995 -0.006634 -1.362399 -46.107049 44.144179 19.180001 -0.854723 30.330715 0.648708 0.000000 0.000000 0.000000 
13.242189 63.495140 -37.830471 0.000000 0.000000 0.000000 36.547625 -29.015921 10.701069 -95.103349 -4.543407 0.368312 110.517023 3.321047 -0.654473 15.865566 -1.995308 -10.253074 -60.189000 -4.678346 3.567792 0.000000 0.000000 0.000000 38.216698 -31.290982 13.105062 -102.854569 -2.660641 -20.194463 99.723651 -9.043750 6.877171 -24.722445 -7.719020 2.307569 -4.293616 1.813387 -1.064741 0.000000 0.000000 0.000000 40.474509 -30.185591 12.011163 33.786501 8.184694 0.437028 6.109884 2.804152 0.056578 1.119503 -0.766858 1.467988 0.000000 0.000000 0.000000 7.258422 2.415398 0.390621 -6.517303 -1.523616 -2.489557 -20.125444 -10.031172 -8.169819 0.000000 0.000000 0.000000 7.259151 2.363501 -0.291344 7.408012 -25.782714 -5.441130 -0.105329 -0.071018 -3.039669 -22.100011 -8.706642 -32.593946 0.477211 -43.995762 0.590566 0.000000 0.000000 0.000000 6.448020 2.364929 0.769480 1.721700 23.714338 7.889136 0.212340 0.250942 -1.392690 -48.297705 45.174427 21.249087 -1.068160 31.896061 0.834937 0.000000 0.000000 0.000000 
13.064844 65.367531 -35.480885 0.000000 0.000000 0.000000 36.365747 -28.899954 11.419021 -97.436412 -6.108691 3.800806 110.185746 4.694543 -1.756728 14.169674 0.722936 -10.511017 -58.129944 -0.818347 -1.110071 0.000000 0.000000 0.000000 36.753671 -30.425136 13.068344 -98.035515 -2.696616 -20.325716 97.262993 -7.438621 5.750405 -26.049168 -8.933451 2.888763 -3.904139 1.791547 -0.607396 0.000000 0.000000 0.000000 40.259898 -29.530466 12.459294 34.586920 7.494927 0.005358 5.872414 2.617777 -0.042973 0.795941 -0.125143 1.304885 0.000000 0.000000 0.000000 7.465762 2.139260 0.341111 -7.164492 -1.479686 -2.578375 -20.400749 -8.756479 -8.214735 0.000000 0.000000 0.000000 7.149696 2.156581 -0.333574 7.374298 -26.681231 -4.756685 0.032924 0.648078 -3.309075 -22.690664 -9.005887 -30.696806 0.945255 -44.981672 1.033090 0.000000 0.000000 0.000000 6.319823 2.062344 0.654759 1.986397 21.766787 5.770100 0.775051 0.731283 -1.579551 -51.662550 46.137545 24.318183 -1.226592 33.291387 0.892430 0.000000 0.000000 0.000000 
13.029574 67.473045 -32.928051 0.000000 0.000000 0.000000 36.065141 -28.676184 12.576404 -99.500160 -8.059926 7.625904 108.617397 4.442630 -1.272663 14.094757 2.033248 -13.407091 -52.337206 1.820350 -4.172975 0.000000 0.000000 0.000000 35.688100 -29.394815 13.525550 -92.306066 -2.917168 -21.012408 93.355852 -5.998670 4.690767 -26.858295 -10.353080 3.958525 -4.059502 1.649263 -0.197320 0.000000 0.000000 0.000000 39.950955 -28.608976 13.356478 35.548816 6.554783 -0.466679 5.630979 2.385416 -0.205787 0.685267 0.401944 1.115915 0.000000 0.000000 0.000000 7.674297 1.820098 0.268563 -7.900874 -1.524049 -2.439990 -20.688165 -7.508870 -8.300044 0.000000 0.000000 0.000000 7.059336 1.891664 -0.406837 7.178134 -27.450759 -4.249797 0.143154 1.354803 -3.521341 -23.243526 -10.044533 -28.524731 1.628326 -45.531206 1.525843 0.000000 0.000000 0.000000 6.240645 1.713880 0.475459 2.168388 19.684388 3.458411 0.983502 1.419012 -1.654213 -55.499887 46.714898 27.801354 -1.252375 34.524380 0.789472 0.000000 0.000000 0.000000 
